<svg height="26" viewBox="0 0 104 26" width="104" xmlns="http://www.w3.org/2000/svg" xmlns:xlink="http://www.w3.org/1999/xlink"><mask id="a" fill="#fff"><path d="m0 .14h96.7218v25.86h-96.7218z" fill="#fff" fill-rule="evenodd"/></mask><g fill="none" fill-rule="evenodd" transform="translate(0 -1)"><path d="m20.5088 7.3229c-2.874 0-4.526 1.544-5.352 3.089h-.395c-.683-1.508-2.514-3.089-5.065-3.089-2.37 0-4.094 1.186-4.919 2.514h-.396l-.575-2.155h-3.807v17.958h4.849v-10.272c0-2.514 1.616-3.735 3.161-3.735 1.651 0 3.017 1.293 3.017 3.843v10.164h4.812v-10.2c0-2.514 1.509-3.807 3.125-3.807 1.724 0 3.089 1.221 3.089 3.735v10.272h4.849v-10.487c0-5.388-2.622-7.83-6.393-7.83zm21.366 12.643c-.646 1.437-2.191 2.227-3.951 2.227-2.945 0-4.418-1.688-4.776-4.274h13.037c.61-7.651-3.879-10.596-8.655-10.596-4.921 0-8.873 3.771-8.873 9.303 0 5.567 3.592 9.374 9.196 9.374 4.058 0 7.578-2.119 8.44-6.034zm-4.131-8.979c2.479 0 4.059 1.76 4.131 3.555h-8.548c.575-2.262 2.191-3.555 4.417-3.555zm32.936.431v-3.736h-4.454v-4.525h-4.275v1.975c0 1.545-.933 2.55-2.837 2.55h-4.274v-4.525h-4.237v2.334c0 1.545-.971 2.515-2.838 2.515h-1.113v3.412h3.519v8.835c0 4.418 2.335 5.747 5.459 5.747 1.241.011 2.461-.324 3.521-.97l-.97-3.627c-.323.179-.97.503-1.689.503-1.005 0-1.652-.647-1.652-2.084v-8.404h6.717v8.835c0 4.418 2.335 5.747 5.459 5.747 1.241.011 2.46-.324 3.519-.97l-.969-3.627c-.324.179-.97.503-1.688.503-1.006 0-1.652-.647-1.652-2.084v-8.404zm1.82 14.222h4.741v-25.5h-4.741zm19.804-5.674c-.647 1.437-2.191 2.227-3.95 2.227-2.946 0-4.418-1.688-4.778-4.274h13.038c.611-7.651-3.878-10.596-8.656-10.596-4.921 0-8.871 3.771-8.871 9.303 0 5.567 3.591 9.374 9.194 9.374 4.059 0 7.579-2.119 8.441-6.034zm-4.13-8.979c2.478 0 4.059 1.76 4.13 3.555h-8.548c.574-2.262 2.191-3.555 4.418-3.555z" fill="#fff" mask="url(#a)" transform="translate(0 .8601)"/><path d="m100.9375 26.7162c1.51-.029 2.721-1.256 2.729-2.766 0-1.544-1.256-2.8010006-2.729-2.8010006-1.554-.0009994-2.818 1.2480006-2.837 2.8010006 0 1.509 1.293 2.766 2.837 2.766" fill="#ff788b"/></g></svg>