<?xml version="1.0" encoding="utf-8"?>
<!-- Generator: Adobe Illustrator 19.2.1, SVG Export Plug-In . SVG Version: 6.00 Build 0)  -->
<svg version="1.1" id="layer" xmlns="http://www.w3.org/2000/svg" xmlns:xlink="http://www.w3.org/1999/xlink" x="0px" y="0px"
	 viewBox="0 0 652 652" style="enable-background:new 0 0 652 652;" xml:space="preserve">
<style type="text/css">
	.st0{fill-rule:evenodd;clip-rule:evenodd;fill:#333D45;}
	.st1{fill-rule:evenodd;clip-rule:evenodd;fill:#FFF155;}
</style>
<rect x="27" y="177.9" class="st0" width="600" height="296.3"/>
<path class="st1" d="M60.3,312.2v52.1l22.6,13.1l22.6-13.1l-22.6-13v-52.2L60.3,312.2z M104.8,285.3v52.2l22.6,13v-52.2L104.8,285.3
	z M354.9,309.5c3.7,0,6.6-2.8,6.6-6.6c0.1-3.6-2.9-6.6-6.6-6.6c-3.7,0-6.6,2.8-6.6,6.6C348.3,306.7,351.1,309.5,354.9,309.5
	L354.9,309.5z M163.1,362.3h10.2v-65h-10.2V362.3z M568.5,350.3c0,8.9,5.2,13.1,13.6,13.1c3,0,5.7-0.6,7.1-1.4v-9.6
	c-1.3,0.8-3.3,1.4-5.2,1.4c-3.3,0-5.3-1.6-5.3-4.9v-23.7H589v-8.8h-10.2v-13.7l-10.2,6.2v7.5h-6.4v8.8h6.4V350.3L568.5,350.3z
	 M349.8,362.2h10.1v-45.8h-10.1V362.2z M491.1,324.8c5.9,0,11,4,12.4,9.7h-24.9C480.2,328.6,484.9,324.8,491.1,324.8L491.1,324.8z
	 M206.9,324.8c5.9,0,11,4,12.4,9.7h-24.9C196.1,328.6,200.8,324.8,206.9,324.8L206.9,324.8z M314.1,353.8c-7.9,0-13.5-6.2-13.5-14.4
	c0-8.2,5.7-14.4,13.5-14.4c7.8,0,13.6,6.2,13.6,14.4C327.7,347.6,321.9,353.8,314.1,353.8L314.1,353.8z M382.3,335.8
	c0-6.4,4.8-10.9,11.1-10.9c6.2,0,10.3,4.6,10.3,10.9v26.4h10.2v-26.7c0-12.1-7.4-20.3-18-20.3c-5.8,0-10.6,2.4-13.9,6.5v-5.3h-9.8
	v45.8h10.1V335.8z M249.4,335.8c0-6.4,4.8-10.9,11.1-10.9c6.2,0,10.3,4.6,10.3,10.9v26.4h10.1v-26.7c0-12.1-7.3-20.3-18-20.3
	c-5.7,0-10.5,2.4-13.9,6.5v-5.3h-9.8v45.8h10.1V335.8z M511.8,354.5l-6.9-7c-3,4-7.8,6.4-12.8,6.4c-6.5,0.2-12.2-4.3-13.7-10.6h36
	v-4c0-13.7-10-24-23.3-24c-13.5,0-23.4,10.3-23.4,24c0,13.7,10.2,24,24.4,24C499.6,363.5,506.8,360.3,511.8,354.5L511.8,354.5z
	 M227.6,354.5l-6.9-7c-3,4-7.7,6.4-12.7,6.4c-6.5,0.2-12.2-4.3-13.7-10.6h36v-4c0-13.7-10.1-24-23.3-24c-13.5,0-23.4,10.3-23.4,24
	c0,13.7,10.2,24,24.5,24C215.5,363.5,222.7,360.3,227.6,354.5L227.6,354.5z M537.5,344c6.8,2.4,8.2,3.8,8.2,5.9c0,2.6-2.2,4-6.4,4
	c-4.5,0.2-8.6-2.3-10.5-6.4l-8.3,5.9c3.7,6.2,10.3,10,18.5,10c10,0,17.2-5.6,17.2-13.8c0-7-4.6-11.5-14.3-14.8l-1.8-0.6
	c-5.8-1.9-7.2-3.6-7.2-5.6c0-2.3,2.2-3.8,5.8-3.8c3.5,0,6,1.5,8.5,5l8-5.6c-3.6-5.7-9.9-9-16.6-8.8c-9.6,0-16.2,5.6-16.2,13.6
	c0,6.7,4.1,11.4,13.2,14.5L537.5,344z M327.8,357.1v5.1h9.8v-65h-10.1v24c-3.8-3.9-9.1-6-14.6-5.9c-12.7,0-22.6,10.5-22.6,24
	c0,13.6,9.9,24,22.6,24C318.9,363.4,324.1,361.1,327.8,357.1L327.8,357.1z M442,363.4l24.6-46.9h-11.7l-13.1,26.3l-13.1-26.3H417
	l24.6,46.9H442z M442,363.4"/>
</svg>
