<?xml version="1.0" encoding="UTF-8"?>
<svg id="SVGRoot" width="500" height="81.445" version="1.1" viewBox="0 0 499.99976 81.444825" xmlns="http://www.w3.org/2000/svg" xmlns:cc="http://creativecommons.org/ns#" xmlns:dc="http://purl.org/dc/elements/1.1/" xmlns:rdf="http://www.w3.org/1999/02/22-rdf-syntax-ns#" xmlns:xlink="http://www.w3.org/1999/xlink"><defs><linearGradient id="linearGradient249443" x1="1279" x2="1331.7" y1="-1715.3" y2="-1786.7" gradientTransform="matrix(.2166 0 0 .2166 -241.02 411.71)" gradientUnits="userSpaceOnUse" xlink:href="#linearGradient249302"/><linearGradient id="linearGradient249302"><stop stop-color="#e4a1cd" offset="0"/><stop stop-color="#df9fcf" stop-opacity=".062745" offset="1"/></linearGradient><linearGradient id="linearGradient249445" x1="1255.1" x2="1363.2" y1="-1793.3" y2="-1683.9" gradientTransform="matrix(-.10855 .18744 -.18744 -.10855 -124.68 -385.71)" gradientUnits="userSpaceOnUse" xlink:href="#linearGradient249302"/><linearGradient id="linearGradient249447" x1="1223" x2="1352.6" y1="-1764.2" y2="-1772.4" gradientTransform="matrix(-.10682 -.18844 .18844 -.10682 506.81 117.09)" gradientUnits="userSpaceOnUse"><stop stop-color="#e3a2cd" stop-opacity=".86667" offset="0"/><stop stop-color="#e3a3c6" stop-opacity=".035294" offset="1"/></linearGradient></defs><metadata><rdf:RDF><cc:Work rdf:about=""><dc:format>image/svg+xml</dc:format><dc:type rdf:resource="http://purl.org/dc/dcmitype/StillImage"/><dc:title/></cc:Work></rdf:RDF></metadata><g stroke-width="1.5492"><path d="m46.997 23.256h-26.853l6.7391 11.651h13.383l6.7248 11.614h13.43z" fill="url(#linearGradient249443)"/><path d="m67.147 58.205 13.457-23.238-13.46-7e-3 -6.7066 11.582-13.42-4.3e-4 -6.7302 11.622z" fill="url(#linearGradient249445)"/><path d="m26.838 58.085 13.242 23.36 6.8127-11.609-6.5997-11.643 6.787-11.577-6.6229-11.684z" fill="url(#linearGradient249447)"/></g><g fill="#a32ae1" stroke-width=".99999"><path d="m94.007 58.145-13.427-23.256-13.422 23.243h-26.854l13.42 23.271h26.863z"/><path d="m26.868 58.135h2e-3l13.418-23.245h-26.853l-13.42 23.245h-2e-3l-0.0059999 0.011 13.428 23.26h26.86l-13.426-23.271z"/><path d="m73.857 23.256-13.427-23.256h2e-3 -26.856l-13.419 23.243h26.854l13.427 23.264z"/></g><g fill="#5e10b1" stroke-width=".99999"><path d="m80.577 34.896 13.427 23.255-13.42 23.258-13.427-23.269z"/><path d="m40.287 81.405h-26.861l-13.427-23.261 0.0059999-9e-3h26.856l13.426 23.271z"/><path d="m47.017 23.246 13.427 23.264 13.42-23.251-13.427-23.257z"/></g><path d="m167.04 30.006c-3.764 0-7.4191 0.65469-9.9935 1.7733l-0.29329 0.10596v6.8187l0.67075-0.3367c1.7406-0.84179 5.9037-1.6102 8.5161-1.6102 6.5065 0 6.7917 2.4793 6.8107 5.6998h-6.9546c-9.2087 0-13.402 5.7735-13.402 11.123 0 7.4624 5.9363 11.338 11.827 11.338 4.0136 0 6.5392-1.5017 8.5785-3.3076v2.5988h7.3349v-22.637c0-10.439-9.1625-11.566-13.095-11.566m5.7108 24.425c-0.84999 1.0482-3.514 3.8181-7.6635 3.8181-3.1853 0-5.2247-1.8332-5.2247-4.6682 0-2.9057 2.3246-4.5785 6.3735-4.5785h6.5147zm148.89-17.13v17.173c0 3.0768 1.4473 3.658 4.1385 3.658 1.5289 0 2.6992-0.30138 3.2913-0.46173l0.60291-0.20094v6.6071l-0.38012 0.0814c-2.2161 0.57296-4.1007 0.76036-6.8841 0.76036-1.9227 0-8.1605-0.63255-8.1605-8.8636v-18.754h-4.7387v-0.44546c-0.0191-0.31766-0.0191-2.5825 0-4.6952v-1.4501h4.7387v-8.4538l7.392-2.596v11.05h8.0327v6.5908zm-180.39-17.367h7.2399v44.275h-7.0389l-19.322-30.836v30.836h-7.2289v-44.275h7.2206l19.129 31.07zm167.53 34.953c0 5.0212-4.3694 10.099-12.688 10.099-3.6498 0-7.6797-0.90415-10.572-2.3002l-0.26341-0.13024v-7.1911l0.68709 0.3748c2.4114 1.2956 6.2703 2.6722 9.9527 2.6722 3.3592 0 5.2899-1.2031 5.2899-3.3076 0-1.9742-1.1841-2.5853-4.106-3.878l-1.1514-0.49125c-1.4148-0.61104-2.6532-1.1542-4.6898-2.0913-1.9525-0.87986-6.5119-2.9355-6.5119-9.051 0-3.2861 2.5228-9.4747 11.995-9.4747 3.9104 0 7.7775 1.0562 9.3011 1.7948l0.2715 0.13333v7.0633l-0.68709-0.32318c-3.0226-1.4937-5.6783-2.1862-8.6193-2.1862-1.0836 0-4.6654 0.21443-4.6654 2.7183 0 1.9011 2.2567 2.895 4.0788 3.7148l0.35025 0.14933c1.3144 0.57848 2.3463 1.0621 3.2342 1.4095l0.9533 0.41014c5.7054 2.4928 7.8399 5.157 7.8399 9.8848m-41.391-24.778c-5.6539 0-15.202 3.6851-15.202 17.511 0 16.462 13.098 17.299 15.724 17.299 5.5588 0 8.0408-1.1595 10.482-2.2974l0.26607-0.12508v-7.0034l-0.70327 0.42365c-1.7733 1.1078-5.2057 2.349-9.0539 2.349-7.7856 0-8.8855-5.5671-8.9859-7.9106h21.402l0.0412-0.37757c0.67899-4.619 0.0147-11.09-3.7828-15.493-2.5092-2.9002-5.9417-4.3748-10.186-4.3748m-7.4734 13.883c0.19014-3.1586 2.4224-7.2808 7.1393-7.2808 5.1216 0 6.6805 4.5216 6.8488 7.2808zm-7.6851-24.058-8.8773 44.275h-7.5385l-7.8454-30.83-7.9758 30.83h-7.4136l-9.282-44.275h7.7368l6.0178 30.043 7.476-30.043h7.2154c0.71682 2.808 7.4923 29.669 7.5792 30.005 0.0515-0.35852 5.3307-29.022 5.5154-30.005zm-49.809 10.776v6.5908h-8.0301v17.174c0 3.0633 1.4501 3.658 4.1304 3.658 1.5642 0 2.7428-0.30138 3.3022-0.47249l0.59747-0.19018v6.6071l-0.33406 0.0814c-2.2539 0.57296-4.1385 0.76036-6.9166 0.76036-1.9227 0-8.1956-0.63255-8.1956-8.8636v-18.754h-4.7142v-6.5908h4.7142v-8.4538l7.4163-2.596v11.05z" fill="#42145f" stroke-width=".99999"/><path d="m377.54 40.375h-14.996v4.7278h9.2547v13.576c-1.3496 0.67895-3.9865 1.2166-7.8345 1.2166-10.607 0-17.565-6.8215-17.565-18.371 0-11.416 7.2289-18.306 18.306-18.306 4.5919 0 7.6335 0.87987 10.064 1.9607l1.4202-4.7959c-1.9606-0.94502-6.0802-2.0937-11.349-2.0937-15.264 0-24.587 9.9285-24.655 23.504 0 7.0934 2.4332 13.174 6.3489 16.954 4.4589 4.2553 10.132 6.0123 17.022 6.0123 6.1482 0 11.349-1.5533 13.983-2.4983zm5.7407 23.911h5.8765v-17.426c0-1.0129 0.13539-1.9579 0.27166-2.7699 0.80923-4.4562 3.7828-7.6335 7.9703-7.6335 0.80923 0 1.4175 0.0678 2.0258 0.20369v-5.6077c-0.54037-0.13303-1.0129-0.20092-1.6891-0.20092-3.9865 0-7.5656 2.7699-9.0512 7.161h-0.27151l-0.20087-6.4169h-5.2004c0.20102 3.0388 0.26885 6.3462 0.26885 10.197zm32.24-33.435c-9.0511 0-16.212 6.4169-16.212 17.358 0 10.336 6.8244 16.82 15.672 16.82 7.9023 0 16.278-5.2682 16.278-17.361 0-9.9963-6.349-16.818-15.737-16.818m-0.13538 4.4562c7.0252 0 9.7951 7.0252 9.7951 12.565 0 7.3622-4.2552 12.698-9.9309 12.698-5.8087 0-9.9283-5.4039-9.9283-12.563 0-6.2159 3.0389-12.701 10.064-12.701m47.408-3.7121h-5.9443v20.06c0 1.0808-0.20102 2.1616-0.53772 3.0387-1.0808 2.6341-3.8508 5.404-7.8371 5.404-5.4013 0-7.2941-4.1873-7.2941-10.401v-18.102h-5.9445v19.115c0 11.482 6.1482 14.319 11.281 14.319 5.8087 0 9.2547-3.4461 10.808-6.0802h0.13244l0.3395 5.3361h5.2683c-0.20367-2.5662-0.27166-5.5398-0.27166-8.9152zm6.2705 46.064h5.8737v-17.766h0.13833c1.9553 3.2424 5.7382 5.1351 10.061 5.1351 7.7015 0 14.86-5.8086 14.86-17.565 0-9.9284-5.9443-16.614-13.847-16.614-5.3361 0-9.1843 2.3626-11.618 6.349h-0.13245l-0.27166-5.6049h-5.3361c0.13538 3.1066 0.27165 6.4848 0.27165 10.67zm5.8737-32.286c0-0.81198 0.20367-1.6891 0.40733-2.4332 1.1488-4.4562 4.9316-7.3619 8.9832-7.3619 6.2812 0 9.7246 5.6077 9.7246 12.158 0 7.4977-3.6443 12.633-9.9283 12.633-4.2552 0-7.8345-2.8378-8.9153-6.9601-0.13392-0.74131-0.27166-1.5506-0.27166-2.4304z" fill="#42145f" stroke-width=".99999"/></svg>
