<?xml version="1.0" encoding="UTF-8"?>
<svg width="125px" height="38px" viewBox="0 0 125 38" version="1.1" xmlns="http://www.w3.org/2000/svg" xmlns:xlink="http://www.w3.org/1999/xlink">
    <!-- Generator: sketchtool 63.1 (101010) - https://sketch.com -->
    <title>DFE4E62D-7216-4D71-935A-5D9EAA63BE62@1.00x</title>
    <desc>Created with sketchtool.</desc>
    <g id="Style-Guide" stroke="none" stroke-width="1" fill="none" fill-rule="evenodd">
        <g transform="translate(-103.000000, -111.000000)" id="logos">
            <g transform="translate(18.000000, 86.000000)">
                <g id="normal-logo" transform="translate(68.000000, 0.000000)">
                    <g id="Ten10-Group-Logo" transform="translate(17.000000, 25.000000)">
                        <polygon id="Path" fill="#484848" points="26.99788 0 0 0 0 6.45324031 10.0274812 6.45324031 10.0274812 37 16.9067996 37 16.9067996 6.41697417 27 6.39990775"></polygon>
                        <path d="M28.982082,19.8242472 C29.5105116,18.7781869 30.2961062,17.8810385 31.2663394,17.215627 C32.916315,16.0409117 34.9687751,16.0492727 34.9687751,16.0492727 C36.506779,15.9547374 38.0231873,16.4459099 39.2085591,17.4225608 C40.3457048,18.379689 41.0752664,19.7284547 41.250483,21.1975353 L28.5332381,21.1975353 C28.4953076,21.0324063 28.8113949,20.1315126 28.982082,19.8242472 Z M28.5290236,25.9382011 L47.7049852,25.9382011 L47.635446,23.9754651 C47.635446,23.9754651 47.4984748,20.8568261 46.7777959,18.9317145 C46.0571169,17.0066029 45.4038698,15.2173569 42.8857078,13.1898235 C40.3675458,11.1622901 36.0835096,10.9051905 34.8781634,11.0243342 C33.6728172,11.143478 32.4485058,10.9240027 29.0284415,12.3202834 C25.6083771,13.7165642 23.6528505,17.5187118 23.6528505,17.5187118 C23.6528505,17.5187118 21.7120746,20.4889438 22.0365909,25.9382011 C22.3611071,31.3874583 25.7832787,34.4726535 25.7832787,34.4726535 C25.7832787,34.4726535 28.7207832,37.6414583 34.2354526,37.9654456 C39.750122,38.2894329 43.0858964,36.2284556 43.0858964,36.2284556 C43.0858964,36.2284556 46.3521316,34.5562631 48,31.7114456 C43.8634711,29.299308 42.8119541,28.7140406 42.8119541,28.7140406 C41.1648275,31.067148 38.4285268,32.4329098 35.5419467,32.3426983 C29.4477839,31.905838 28.625957,27.8674931 28.5290236,25.9382011 Z" id="Shape" fill="#484848"></path>
                        <path d="M57.3759576,14.2481928 L57.3759576,11.6353437 L51,11.6353437 L51,38 L57.3759576,38 L57.3759576,23.4865573 C57.3759576,23.4865573 57.2758914,17.8357612 62.311832,17.1530283 C67.3956304,16.7236365 67.6653741,20.3197928 67.6762508,24.0404727 C67.6871276,27.8513249 67.6762508,37.9957061 67.6762508,37.9957061 L74,37.9957061 L74,18.6086665 C74,18.6086665 73.8194458,13.1961829 69.0750024,11.6460785 C64.330559,10.0959741 60.7499291,11.8221291 60.7499291,11.8221291 C59.471881,12.3994519 58.3244878,13.2244882 57.3759576,14.2481928 Z" id="Path" fill="#484848"></path>
                        <polygon id="Path" fill="#6558A5" points="88 37 80.9440344 37 80.9440344 6.35813819 74 6.35813819 74 0 88 0"></polygon>
                        <path d="M118.120021,19.0010651 C118.120021,26.2287124 113.986986,32.0887942 108.888524,32.0887942 C103.790062,32.0887942 99.6591297,26.2287124 99.6591297,19.0010651 C99.6591297,11.7734178 103.800578,5.91120579 108.888524,5.91120579 C113.976469,5.91120579 118.120021,11.7712876 118.120021,19.0010651 Z M109,0 C100.166031,0 93,8.507876 93,19.0010651 C93,29.4942542 100.163928,38 109,38 C117.836072,38 125,29.492124 125,19.0010651 C125,8.51000617 117.836072,0 109,0 Z" id="Shape" fill="#6558A5"></path>
                    </g>
                </g>
            </g>
        </g>
    </g>
</svg>